<svg id="a" xmlns="http://www.w3.org/2000/svg" viewBox="0 0 16 16">
<rect width="16" height="16" rx="2" ry="2" style="fill:#0d7a68;"/>
<path d="M12.12,11.06h-.92v.62c0,.2-.15.35-.34.35h-5.74c-.19,0-.34-.16-.34-.35v-1.61c0-.17.06-.32.18-.45l2.51-2.64c.13-.13.3-.22.49-.24.2-.01.4.07.54.22l.5.52s.07.03.1,0l.55-.58s.03-.07,0-.11l-.47-.5c-.27-.32-.66-.51-1.06-.53-.41,0-.81.18-1.09.5l-2.71,2.65c-.3.29-.46.71-.44,1.13v1.61c0,.73.56,1.32,1.25,1.32h5.74c.7,0,1.25-.59,1.25-1.32v-.62" style="fill:#fff;"/><path d="M3.88,4.94h.92v-.62c0-.2.15-.35.34-.35h5.74c.19,0,.34.16.34.35v1.61c0,.17-.06.32-.18.45l-2.51,2.64c-.13.13-.3.22-.49.24-.2.01-.4-.07-.54-.22l-.5-.52s-.07-.03-.1,0l-.55.58s-.03.07,0,.11l.47.5c.27.32.66.51,1.06.53.41,0,.81-.18,1.09-.5l2.71-2.65c.3-.29.46-.71.44-1.13v-1.61c0-.73-.56-1.32-1.25-1.32h-5.74c-.7,0-1.25.59-1.25,1.32v.62" style="fill:#fff;"/><path d="M4.45,6.96l.35.38s.07.03.1,0h0l.56-.6s.03-.08,0-.1h0l-.35-.38.57-.61h-1.8v1.94l.57-.62" style="fill:#fff;"/><path d="M11.55,9.04l-.35-.38s-.07-.03-.1,0h0l-.56.6s-.03.08,0,.1h0l.35.38-.57.61h1.8v-1.94l-.57.62" style="fill:#fff;"/>
</svg>
